<?xml version="1.0" encoding="UTF-8"?>
<svg id="Layer_1" xmlns="http://www.w3.org/2000/svg" version="1.1" viewBox="0 0 743.07 170">
  <!-- Generator: Adobe Illustrator 29.7.1, SVG Export Plug-In . SVG Version: 2.1.1 Build 8)  -->
  <defs>
    <style>
      .st0 {
        fill: #fff;
        fill-rule: evenodd;
      }
    </style>
  </defs>
  <path d="M170,0H0v170h170V0Z"/>
  <path class="st0" d="M78,78H22V22h56v56ZM64,36h-28v28h28v-28Z"/>
  <path class="st0" d="M148,78h-56V22h14v42h28V22h14v56Z"/>
  <path class="st0" d="M120,148h-14v-42H36v42h-14v-56h98v56Z"/>
  <path class="st0" d="M64,92h14v56h-14v-56Z"/>
  <path class="st0" d="M134,92h14v56h-14v-56Z"/>
  <g>
    <path d="M337.33,33.74c11.63,0,21.27,9.49,21.27,21.27v67.63c0,11.78-9.64,21.27-21.27,21.27h-67.63c-11.78,0-21.27-9.49-21.27-21.27V55.01c0-11.78,9.49-21.27,21.27-21.27h67.63ZM337.33,123.71c.46,0,.92-.46.92-1.07V55.01c0-.61-.46-1.07-.92-1.07h-67.63c-.61,0-1.07.46-1.07,1.07v67.63c0,.61.46,1.07,1.07,1.07h67.63Z"/>
    <path d="M465.08,55.16v67.63c0,11.63-9.49,21.11-21.11,21.11h-47.89c-11.78,0-21.11-9.49-21.11-21.11V55.16h20.04v67.63c0,.61.46,1.07,1.07,1.07h47.89c.61,0,1.07-.46,1.07-1.07V55.16h20.04Z"/>
    <path d="M608.74,76.28v67.63h-19.89v-67.63c0-.61-.46-1.07-1.22-1.07h-33.35c-.61,0-.92.46-.92,1.07v67.63h-20.2v-67.63c0-.61-.46-1.07-.92-1.07h-33.51c-.61,0-1.07.46-1.07,1.07v67.63h-20.04V55.16h110.01c11.63,0,21.11,9.49,21.11,21.11Z"/>
    <path d="M646.99,26.09v20.2h-20.04v-20.2h20.04ZM626.95,55.16h20.04v88.74h-20.04V55.16Z"/>
  </g>
  <text/>
</svg>